<svg
  aria-hidden="true"
  style="position: absolute; width: 0; height: 0; overflow: hidden;"
  version="1.1"
  xmlns="http://www.w3.org/2000/svg"
  xmlns:xlink="http://www.w3.org/1999/xlink"
>
<defs>
<symbol id="close-menu" viewBox="0 0 34 32">
<path
        fill="none"
        stroke="#fff"
        style="stroke: var(--color1, #fff)"
        stroke-linejoin="miter"
        stroke-linecap="round"
        stroke-miterlimit="4"
        stroke-width="3.5556"
        d="M2.37 29.486l27.116-27.116"
      />
<path
        fill="none"
        stroke="#fff"
        style="stroke: var(--color1, #fff)"
        stroke-linejoin="miter"
        stroke-linecap="round"
        stroke-miterlimit="4"
        stroke-width="3.5556"
        d="M4.885 2.37l27.115 27.116"
      />
</symbol>
<symbol id="menu" viewBox="0 0 47 32">
<path
        fill="none"
        stroke="#fff"
        style="stroke: var(--color1, #fff)"
        stroke-linejoin="miter"
        stroke-linecap="round"
        stroke-miterlimit="4"
        stroke-width="5.0526"
        d="M2.526 2.526h42.105"
      />
<path
        fill="none"
        stroke="#fff"
        style="stroke: var(--color1, #fff)"
        stroke-linejoin="miter"
        stroke-linecap="round"
        stroke-miterlimit="4"
        stroke-width="5.0526"
        d="M2.526 15.594h42.105"
      />
<path
        fill="none"
        stroke="#fff"
        style="stroke: var(--color1, #fff)"
        stroke-linejoin="miter"
        stroke-linecap="round"
        stroke-miterlimit="4"
        stroke-width="5.0526"
        d="M2.526 28.662h42.105"
      />
</symbol>
<symbol id="time" viewBox="0 0 32 32">
<path
        fill="#a59dff"
        style="fill: var(--color1, #a59dff)"
        d="M15.943 0.318c-8.631 0-15.653 7.022-15.653 15.653s7.022 15.653 15.653 15.653 15.653-7.022 15.653-15.653c0-8.631-7.022-15.653-15.653-15.653zM24.944 17.536h-10.566v-10.957h3.131v7.827h7.435v3.131z"
      />
</symbol>
<symbol id="arrow" viewBox="0 0 26 32">
<path
        d="M13.023 30.76l0.526 0.526-0.526 0.526-0.526-0.526 0.526-0.526zM12.279 0.992c0-0.411 0.333-0.744 0.744-0.744s0.744 0.333 0.744 0.744h-1.488zM25.456 19.379l-11.907 11.907-1.052-1.052 11.907-11.907 1.052 1.052zM12.497 31.286l-11.907-11.907 1.052-1.052 11.907 11.907-1.052 1.052zM12.279 30.76v-29.767h1.488v29.767h-1.488z"
      />
</symbol>
<symbol id="payments1" viewBox="0 0 28 32">
<path
        fill="#fff"
        style="fill: var(--color1, #fff)"
        d="M21.802 14.506c0.070-0.541 0.14-1.119 0.14-1.696v-8.66h4.744c-0.174 1.876-1.012 7.794-4.883 10.356zM15.313 21.254c-0.453 0.108-0.907 0.18-1.36 0.18-0.523 0-1.046-0.072-1.535-0.216-0.105-0.036-0.279-0.108-0.349-0.108-2.895-1.010-5.058-4.33-5.058-8.263v-11.727h13.848v11.727c0 3.933-2.163 7.253-5.093 8.263zM20.86 28.579v1.985h-13.779v-1.985c3.070-0.253 5.442-2.887 5.511-6.243 0.419 0.072 0.872 0.144 1.325 0.144 0.419 0 0.837-0.036 1.221-0.108 0.14 3.284 2.616 5.954 5.721 6.207v0zM1.081 4.15h4.884v8.66c0 0.613 0.035 1.191 0.14 1.768-3.977-2.454-4.849-8.552-5.023-10.428zM27.592 3.248c-0.105-0.108-0.244-0.18-0.384-0.18h-5.302v-2.526c0-0.289-0.244-0.541-0.523-0.541h-14.895c-0.279 0-0.523 0.253-0.523 0.541v2.526h-5.442c-0.14 0-0.279 0.072-0.384 0.18s-0.14 0.253-0.14 0.397c0 0.108 0.105 2.418 0.907 5.088 1.116 3.572 3 6.098 5.511 7.253 0.837 2.887 2.756 5.16 5.163 6.062v0.108c0 2.995-2.198 5.377-5.023 5.377-0.279 0-0.523 0.253-0.523 0.541v3.067c0 0.289 0.244 0.541 0.523 0.541h14.825c0.279 0 0.523-0.253 0.523-0.541v-3.067c0-0.289-0.244-0.541-0.523-0.541-2.86 0-5.198-2.418-5.198-5.377v-0.072c2.512-0.902 4.465-3.212 5.302-6.17 2.407-1.191 4.256-3.681 5.337-7.181 0.837-2.67 0.907-5.016 0.907-5.088 0.035-0.144-0.035-0.289-0.14-0.397z"
      />
</symbol>
<symbol id="payments2" viewBox="0 0 32 32">
<path
        fill="#fff"
        style="fill: var(--color1, #fff)"
        d="M29.020 21.585h-27.341c-0.132 0-0.24-0.107-0.24-0.24v-2.398h27.82v2.398c0 0.132-0.107 0.24-0.24 0.24v0zM18.467 29.259h-6.236v-6.236h6.236v6.236zM1.679 1.439h27.341c0.132 0 0.24 0.107 0.24 0.24v15.829h-27.82v-15.829c0-0.132 0.107-0.24 0.24-0.24v0zM29.020 0h-27.341c-0.927 0-1.679 0.752-1.679 1.679v19.666c0 0.927 0.752 1.679 1.679 1.679h9.114v6.236h-3.837c-0.397 0-0.72 0.322-0.72 0.719s0.322 0.72 0.72 0.72h16.788c0.397 0 0.719-0.322 0.719-0.72s-0.322-0.719-0.719-0.719h-3.837v-6.236h9.114c0.927 0 1.679-0.752 1.679-1.679v-19.666c0-0.927-0.752-1.679-1.679-1.679v-0z"
      />
</symbol>
<symbol id="payments3" viewBox="0 0 28 32">
<path
        fill="#fff"
        style="fill: var(--color1, #fff)"
        d="M15.207 2.851c0.589-0.34 0.79-1.093 0.45-1.681s-1.093-0.79-1.681-0.451l1.231 2.132zM1.532 9.325l-0.615-1.066c-0.404 0.233-0.641 0.674-0.613 1.14l1.229-0.074zM1.111 22.863c0.041 0.679 0.624 1.195 1.302 1.155s1.196-0.624 1.155-1.302l-2.457 0.148zM16.015 16.316c0.589-0.34 0.79-1.093 0.451-1.681s-1.093-0.79-1.681-0.451l1.231 2.132zM1.725 21.724c-0.589 0.34-0.79 1.093-0.45 1.681s1.093 0.79 1.681 0.45l-1.231-2.132zM14.171 15.323c0.041 0.679 0.624 1.196 1.302 1.155s1.196-0.624 1.155-1.302l-2.457 0.148zM15.82 1.712c-0.041-0.679-0.624-1.196-1.302-1.155s-1.196 0.624-1.155 1.302l2.457-0.147zM27.271 23.747c0.589-0.34 0.79-1.093 0.45-1.681s-1.093-0.79-1.681-0.45l1.231 2.132zM13.596 30.221l-0.678 1.027c0.389 0.257 0.89 0.272 1.294 0.039l-0.615-1.066zM3.018 21.763c-0.567-0.375-1.331-0.218-1.705 0.349s-0.218 1.331 0.349 1.705l1.356-2.054zM25.977 23.708c0.567 0.375 1.331 0.218 1.705-0.349s0.218-1.331-0.349-1.705l-1.356 2.054zM16.078 14.223c-0.567-0.375-1.331-0.218-1.705 0.349s-0.218 1.331 0.349 1.705l1.356-2.054zM25.427 22.755c0.041 0.679 0.624 1.196 1.302 1.155s1.196-0.624 1.155-1.302l-2.457 0.147zM25.848 9.218l1.229-0.074c-0.023-0.387-0.227-0.74-0.55-0.953l-0.678 1.027zM15.27 0.759c-0.567-0.375-1.331-0.218-1.705 0.349s-0.218 1.331 0.349 1.705l1.356-2.054zM13.976 0.719l-13.060 7.54 1.231 2.132 13.060-7.54-1.231-2.132zM0.303 9.399l0.808 13.464 2.457-0.148-0.808-13.464-2.457 0.147zM14.784 14.184l-13.060 7.54 1.231 2.132 13.060-7.54-1.231-2.132zM16.628 15.175l-0.808-13.464-2.457 0.147 0.808 13.464 2.457-0.148zM26.040 21.616l-13.060 7.54 1.231 2.132 13.060-7.54-1.231-2.132zM14.274 29.194l-11.256-7.432-1.356 2.054 11.256 7.432 1.356-2.054zM27.334 21.654l-11.256-7.432-1.356 2.054 11.256 7.432 1.356-2.054zM27.884 22.608l-0.808-13.464-2.457 0.147 0.808 13.464 2.457-0.147zM26.526 8.19l-11.256-7.432-1.356 2.054 11.256 7.432 1.356-2.054z"
      />
</symbol>
<symbol id="payments4" viewBox="0 0 35 32">
<path
        fill="none"
        stroke="#fff"
        style="stroke: var(--color1, #fff)"
        stroke-linejoin="miter"
        stroke-linecap="round"
        stroke-miterlimit="4"
        stroke-width="2.7826"
        d="M33.298 8.441l-8.347 4.497v5.139l8.347 4.497v-14.133z"
      />
<path
        fill="none"
        stroke="#fff"
        style="stroke: var(--color1, #fff)"
        stroke-linejoin="miter"
        stroke-linecap="round"
        stroke-miterlimit="4"
        stroke-width="2.7826"
        d="M24.951 22.574c0 1.419-1.151 2.57-2.57 2.57h-17.349c-1.419 0-2.57-1.151-2.57-2.57v-14.134c0-1.419 1.151-2.57 2.57-2.57h17.349c1.419 0 2.57 1.151 2.57 2.57v14.134z"
      />
</symbol>
</defs>
</svg>
