<svg width="23" height="26" viewBox="0 0 23 26" fill="none" xmlns="http://www.w3.org/2000/svg">
<path d="M12.3555 2.31654C12.8338 2.0404 12.9977 1.42881 12.7215 0.950517C12.4454 0.472224 11.8338 0.308349 11.3555 0.584492L12.3555 2.31654ZM1.24446 7.5768L0.744456 6.71078C0.416429 6.90016 0.223559 7.25863 0.246251 7.63672L1.24446 7.5768ZM0.902863 18.5761C0.935954 19.1274 1.40969 19.5474 1.96098 19.5144C2.51227 19.4813 2.93236 19.0075 2.89927 18.4562L0.902863 18.5761ZM13.0124 13.2567C13.4907 12.9805 13.6546 12.369 13.3785 11.8907C13.1023 11.4124 12.4907 11.2485 12.0124 11.5246L13.0124 13.2567ZM1.40139 17.6509C0.923101 17.9271 0.759225 18.5387 1.03537 19.017C1.31151 19.4952 1.9231 19.6591 2.40139 19.383L1.40139 17.6509ZM11.5139 12.4498C11.547 13.0011 12.0207 13.4212 12.572 13.3881C13.1233 13.355 13.5434 12.8812 13.5103 12.3299L11.5139 12.4498ZM12.8537 1.3906C12.8206 0.839309 12.3469 0.419223 11.7956 0.452313C11.2443 0.485404 10.8242 0.95914 10.8573 1.51043L12.8537 1.3906ZM22.1575 19.2946C22.6358 19.0185 22.7997 18.4069 22.5235 17.9286C22.2474 17.4503 21.6358 17.2864 21.1575 17.5626L22.1575 19.2946ZM11.0465 24.5549L10.4955 25.3894C10.8116 25.5981 11.2185 25.6103 11.5465 25.4209L11.0465 24.5549ZM2.45202 17.6821C1.99113 17.3778 1.37082 17.5047 1.06652 17.9656C0.762218 18.4265 0.889155 19.0468 1.35004 19.3511L2.45202 17.6821ZM21.1065 19.2631C21.5674 19.5674 22.1877 19.4405 22.492 18.9796C22.7963 18.5187 22.6694 17.8984 22.2085 17.5941L21.1065 19.2631ZM13.0631 11.5558C12.6022 11.2515 11.9819 11.3784 11.6776 11.8393C11.3733 12.3002 11.5002 12.9205 11.9611 13.2248L13.0631 11.5558ZM20.6596 18.4885C20.6927 19.0398 21.1664 19.4599 21.7177 19.4268C22.269 19.3937 22.6891 18.92 22.656 18.3687L20.6596 18.4885ZM21.0012 7.48926L21.9994 7.42935C21.9805 7.11516 21.8149 6.82818 21.5522 6.65475L21.0012 7.48926ZM12.4067 0.616433C11.9459 0.31213 11.3255 0.439067 11.0212 0.899955C10.7169 1.36084 10.8439 1.98115 11.3048 2.28546L12.4067 0.616433ZM11.3555 0.584492L0.744456 6.71078L1.74446 8.44283L12.3555 2.31654L11.3555 0.584492ZM0.246251 7.63672L0.902863 18.5761L2.89927 18.4562L2.24266 7.51689L0.246251 7.63672ZM12.0124 11.5246L1.40139 17.6509L2.40139 19.383L13.0124 13.2567L12.0124 11.5246ZM13.5103 12.3299L12.8537 1.3906L10.8573 1.51043L11.5139 12.4498L13.5103 12.3299ZM21.1575 17.5626L10.5465 23.6889L11.5465 25.4209L22.1575 19.2946L21.1575 17.5626ZM11.5975 23.7204L2.45202 17.6821L1.35004 19.3511L10.4955 25.3894L11.5975 23.7204ZM22.2085 17.5941L13.0631 11.5558L11.9611 13.2248L21.1065 19.2631L22.2085 17.5941ZM22.656 18.3687L21.9994 7.42935L20.003 7.54918L20.6596 18.4885L22.656 18.3687ZM21.5522 6.65475L12.4067 0.616433L11.3048 2.28546L20.4502 8.32378L21.5522 6.65475Z" fill="white"/>
</svg>
